HIERARCHY
ROOT Hips
{
	OFFSET 0.00000 0.00000 0.00000
	CHANNELS 6 Xposition Yposition Zposition Yrotation Zrotation Xrotation 
	JOINT Lumbar
	{
		OFFSET 0 0 0
		CHANNELS 3 Zrotation Xrotation Yrotation
		JOINT Neck
		{
			OFFSET 0.00 0.2701 0.00
			CHANNELS 3 Zrotation Xrotation Yrotation
			End Site
			{
				OFFSET 0.00 0.1379 0.00
			}
		}
		JOINT RightShoulder
		{
			OFFSET 0.0119 0.2289 0.1181
			CHANNELS 3 Zrotation Xrotation Yrotation
			JOINT RightElbow
			{
				OFFSET 0.00 -0.1475 0.00
				CHANNELS 2 Zrotation Yrotation
				JOINT RightWrist
				{
					OFFSET 0.00 -0.1605 0.00
					CHANNELS 2 Zrotation Xrotation
					End Site
					{
						OFFSET 0.0040 -0.1068 0.0006
					}
				}
			}
		}
		JOINT LeftShoulder
		{
			OFFSET 0.0119 0.2289 -0.1181
			CHANNELS 3 Zrotation Xrotation Yrotation
			JOINT LeftElbow
			{
				OFFSET 0.00 -0.1475 0.00
				CHANNELS 2 Zrotation Yrotation
				JOINT LeftWrist
				{
					OFFSET 0.00 -0.1605 0.00
					CHANNELS 2 Zrotation Xrotation
					End Site
					{
						OFFSET 0.0040 -0.1068 -0.0006
					}
				}
			}
		}
	}
	JOINT RightHip
	{
		OFFSET 0.0316 -0.0424 0.0458
		CHANNELS 3 Zrotation Xrotation Yrotation
		JOINT RightKnee
		{
			OFFSET 0.00 -0.2438 0.00
			CHANNELS 1 Zrotation
			JOINT RightAnkle
			{
				OFFSET 0.00 -0.2449 0.00
				CHANNELS 3 Zrotation Xrotation Yrotation
				End Site
				{
					OFFSET 0.1237 -0.0542 0.0051
				}
			}
		}
	}
	JOINT LeftHip
	{
		OFFSET 0.0316 -0.0424 -0.0458
		CHANNELS 3 Zrotation Xrotation Yrotation
		JOINT LeftKnee
		{
			OFFSET 0.00 -0.2438 0.00
			CHANNELS 1 Zrotation
			JOINT LeftAnkle
			{
				OFFSET 0.00 -0.2449 0.00
				CHANNELS 3 Zrotation Xrotation Yrotation
				End Site
				{
					OFFSET 0.1237 -0.0542 -0.0051
				}
			}
		}
	}
}
MOTION
Frames: 16
Frame Time: 0.02
0.06509 -0.56773 0.00981 -189.14936 6.20088 -1.04142 -18.15651 8.93302 -3.42315 4.29107 -40.66798 -2.11994 47.54655 9.59329 55.19657 24.72234 77.35035 1.35812 -6.7733 37.30567 -3.04637 -53.87218 78.17906 -110.6457 49.50866 0.26807 93.83685 6.33425 -24.40583 -16.73197 -15.87796 -2.71783 -4.02538 126.68096 15.19707 46.69605 -126.62232 10.66172 -13.10136 -1.78679
0.06512 -0.56777 0.00983 -189.13707 6.2278 -1.06479 -18.15832 8.93208 -3.4488 4.39245 -40.78789 -2.11994 47.55729 9.58654 55.16642 24.66526 77.45043 1.23066 -6.7938 37.36896 -3.01598 -53.87248 78.12818 -110.60924 49.45534 0.27111 93.81424 6.33408 -24.33842 -16.72506 -15.88 -2.72445 -4.02953 126.68096 15.1743 46.69605 -126.60819 10.59653 -13.04437 -1.71325
0.06513 -0.56783 0.00984 -189.13036 6.24126 -1.08338 -18.15816 8.92726 -3.48969 4.52568 -40.92944 -2.11994 47.56032 9.58319 55.15055 24.68123 77.37144 1.13768 -6.84898 37.43475 -2.9717 -53.87449 78.10292 -110.52951 49.40859 0.27924 93.80437 6.34462 -24.25159 -16.71082 -15.88635 -2.73193 -4.03452 126.68096 15.1485 46.69605 -126.59269 10.58006 -13.00535 -1.67417
0.06514 -0.56787 0.00986 -189.1216 6.26033 -1.10403 -18.15878 8.92363 -3.52219 4.64413 -41.05821 -2.11994 47.56636 9.5778 55.12746 24.66286 77.38002 1.03361 -6.88439 37.49758 -2.93694 -53.87579 78.06802 -110.47524 49.36141 0.28448 93.78912 6.34948 -24.18064 -16.70108 -15.89011 -2.73851 -4.03882 126.68096 15.12523 46.69605 -126.57815 10.54106 -12.95852 -1.62032
0.06516 -0.56793 0.00988 -189.11089 6.28161 -1.12535 -18.16029 8.92258 -3.56069 4.76438 -41.19926 -2.11994 47.57443 9.57367 55.10658 24.64746 77.36962 0.91219 -6.93473 37.56758 -2.88951 -53.87697 78.02548 -110.39865 49.30365 0.29192 93.77211 6.35717 -24.08288 -16.68715 -15.89611 -2.74703 -4.04432 126.68096 15.09726 46.69605 -126.56215 10.50286 -12.90974 -1.56181
0.06517 -0.56797 0.00989 -189.10543 6.29515 -1.14415 -18.15939 8.91529 -3.59041 4.88784 -41.3199 -2.11994 47.57652 9.56804 55.08502 24.64391 77.35334 0.83412 -6.96324 37.62351 -2.86465 -53.87875 78.00438 -110.35706 49.26911 0.29611 93.76178 6.36178 -24.03442 -16.67988 -15.89868 -2.75186 -4.0476 126.68096 15.07816 46.69605 -126.5489 10.47489 -12.86936 -1.52141
0.06515 -0.56798 0.00988 -189.11424 6.28957 -1.15639 -18.15134 8.89046 -3.59193 5.01727 -41.37942 -2.11994 47.56312 9.55755 55.05555 24.65572 77.36626 0.87011 -6.91971 37.63925 -2.90775 -53.88187 78.03927 -110.4276 49.30064 0.2896 93.76723 6.35469 -24.13659 -16.69336 -15.89027 -2.74559 -4.04416 126.68096 15.08602 46.69605 -126.54315 10.4633 -12.849 -1.52392
0.06511 -0.56797 0.00987 -189.12792 6.27681 -1.16644 -18.14104 8.85976 -3.58416 5.14789 -41.4176 -2.11994 47.54413 9.54555 55.02549 24.67709 77.37814 0.94779 -6.85386 37.64099 -2.97354 -53.88548 78.09415 -110.53368 49.35464 0.27976 93.77888 6.3443 -24.28684 -16.71356 -15.8784 -2.73574 -4.03855 126.68096 15.10252 46.69606 -126.54029 10.46054 -12.8363 -1.54323
0.06508 -0.56798 0.00985 -189.13868 6.26799 -1.17788 -18.1323 8.83242 -3.5808 5.27482 -41.46528 -2.11994 47.52819 9.53433 54.99743 24.69405 77.38845 1.00432 -6.80062 37.64961 -3.02735 -53.88877 78.13789 -110.62007 49.39607 0.27174 93.78744 6.33588 -24.40852 -16.73029 -15.86852 -2.72798 -4.03418 126.68096 15.11405 46.69606 -126.53636 10.45368 -12.81944 -1.55428
0.06505 -0.56798 0.00984 -189.15272 6.25591 -1.18723 -18.12117 8.80168 -3.57714 5.41632 -41.51457 -2.11994 47.50969 9.52284 54.96248 24.71389 77.40134 1.07136 -6.73817 37.65592 -3.08766 -53.89256 78.19149 -110.72003 49.4478 0.26254 93.79769 6.32587 -24.55831 -16.74872 -15.85708 -2.71822 -4.02873 126.68097 15.13021 46.69606 -126.5313 10.44842 -12.80621 -1.56967
0.06501 -0.56798 0.00982 -189.16087 6.249 -1.2008 -18.11459 8.77709 -3.57178 5.52713 -41.55514 -2.11994 47.49546 9.51147 54.94164 24.72897 77.41083 1.12599 -6.68917 37.66393 -3.1401 -53.89538 78.22865 -110.80058 49.48319 0.25499 93.80561 6.31821 -24.66076 -16.76503 -15.84795 -2.71184 -4.02504 126.68097 15.13842 46.69606 -126.52933 10.44186 -12.7868 -1.57894
0.06495 -0.56798 0.00982 -189.15294 6.25891 -1.22372 -18.12033 8.76736 -3.56322 5.55447 -41.57686 -2.11994 47.49307 9.50104 54.959 24.72906 77.41257 1.13548 -6.68234 37.67783 -3.1643 -53.89544 78.21815 -110.82021 49.46917 0.25224 93.80667 6.31819 -24.62509 -16.77634 -15.8464 -2.71491 -4.02643 126.68097 15.12596 46.69606 -126.53508 10.42423 -12.75041 -1.57286
0.06489 -0.56797 0.00983 -189.13869 6.2742 -1.25141 -18.13086 8.76461 -3.55332 5.55046 -41.59042 -2.11994 47.49543 9.49071 54.99064 24.72359 77.41157 1.13101 -6.68971 37.69425 -3.18002 -53.89448 78.18991 -110.81908 49.43774 0.2513 93.80495 6.32053 -24.53969 -16.78492 -15.84721 -2.7216 -4.0297 126.68096 15.10468 46.69606 -126.54385 10.4056 -12.70715 -1.55902
0.06484 -0.56797 0.00983 -189.12637 6.28657 -1.27892 -18.13975 8.76116 -3.54446 5.55956 -41.60762 -2.11994 47.49658 9.48011 55.01631 24.71991 77.41181 1.13317 -6.69071 37.71104 -3.20033 -53.89391 78.1678 -110.82673 49.41333 0.24988 93.80367 6.32154 -24.47391 -16.79306 -15.84667 -2.72715 -4.03233 126.68096 15.08507 46.69606 -126.55131 10.3908 -12.6656 -1.54462
0.06477 -0.56797 0.00984 -189.11803 6.30067 -1.29837 -18.14638 8.74751 -3.53354 5.57336 -41.62443 -2.11994 47.49366 9.47033 55.03994 24.71957 77.4119 1.13553 -6.69069 37.72122 -3.2184 -53.89365 78.15409 -110.83816 49.39316 0.24702 93.80594 6.32357 -24.42116 -16.80824 -15.84715 -2.73054 -4.03402 126.68096 15.07516 46.69605 -126.55864 10.36261 -12.63003 -1.5473
0.06473 -0.56796 0.00983 -189.10006 6.31252 -1.33528 -18.15876 8.75631 -3.52664 5.57014 -41.64033 -2.11994 47.50022 9.45897 55.07102 24.71103 77.41171 1.13372 -6.69633 37.74561 -3.23871 -53.89254 78.11899 -110.83656 49.36012 0.24751 93.80025 6.32404 -24.33036 -16.80836 -15.84613 -2.73918 -4.03808 126.68096 15.04341 46.69605 -126.56687 10.36131 -12.5806 -1.51331
